<svg width="350" height="100" viewBox="0 0 350 100" fill="none" xmlns="http://www.w3.org/2000/svg">
<path d="M0 25L33.5 7V18L14.5 27.5V32.5L33.5 22V45L0 63.5V53L18 43V39L0 48.5V25Z" fill="#0065B3"/>
<path d="M35 43.5V7L69.5 26V35.5L48.5 24.5V29L69.5 40.5V49L48.5 37.5V42L69.5 53V64L35 43.5Z" fill="#71BF45"/>
<path d="M44 51.5L35.5 46.5L1.5 65.5L21 76.5L40.5 65.5L44 68L25 79.5L35.5 85L69 65.5L47 53.5L31 62.5L27.5 60.5L44 51.5Z" fill="#F25822"/>
<path d="M82.1984 43.3316L87.1711 41.0285C87.6422 42.7384 88.5059 44.047 89.7621 44.9543C91.0184 45.8441 92.6236 46.2891 94.5777 46.2891C96.4272 46.2891 97.8928 45.7743 98.9746 44.7449C100.074 43.7155 100.623 42.3371 100.623 40.6098C100.623 38.359 98.7565 36.3525 95.0227 34.5902C94.4992 34.3285 94.0979 34.1366 93.8188 34.0145C89.5964 31.9556 86.7785 30.0974 85.3652 28.4398C83.9694 26.7648 83.2715 24.7234 83.2715 22.3156C83.2715 19.1924 84.3271 16.6625 86.4383 14.7258C88.5669 12.7891 91.3499 11.8207 94.7871 11.8207C97.6137 11.8207 99.9779 12.3703 101.88 13.4695C103.782 14.5513 105.099 16.1129 105.832 18.1543L100.964 20.6668C100.196 19.4629 99.3497 18.5818 98.425 18.0234C97.5177 17.4651 96.4708 17.1859 95.2844 17.1859C93.6094 17.1859 92.2746 17.6221 91.2801 18.4945C90.303 19.3669 89.8145 20.5359 89.8145 22.0016C89.8145 24.3047 91.978 26.4508 96.3051 28.4398C96.6366 28.5969 96.8983 28.719 97.0902 28.8062C100.876 30.551 103.476 32.2609 104.889 33.9359C106.303 35.5935 107.009 37.6698 107.009 40.1648C107.009 43.794 105.867 46.6816 103.581 48.8277C101.295 50.9564 98.2069 52.0207 94.316 52.0207C91.0533 52.0207 88.375 51.2704 86.2813 49.7699C84.2049 48.2694 82.844 46.1233 82.1984 43.3316ZM121.365 35.9512H132.043L128.118 27.2098C127.891 26.6514 127.655 26.0146 127.411 25.2992C127.167 24.5664 126.922 23.7551 126.678 22.8652C126.469 23.7027 126.242 24.4879 125.998 25.2207C125.771 25.9361 125.535 26.5991 125.291 27.2098L121.365 35.9512ZM138.586 51L134.242 41.1332H119.062L114.613 51H108.07L126.626 11.1664L145.155 51H138.586ZM159.459 52.4918L142.369 12.6844H148.833L157.417 33.0984C157.923 34.2849 158.342 35.3841 158.674 36.3961C159.005 37.3906 159.267 38.3415 159.459 39.2488C159.686 38.2892 159.974 37.2947 160.323 36.2652C160.671 35.2358 161.082 34.1802 161.553 33.0984L170.111 12.6844H176.549L159.459 52.4918ZM179.887 51V12.6844H201.269V17.9711H186.115V27.5762H201.269V33.0461H186.115V45.4254H201.269V51H179.887ZM207.878 51V12.6844H229.26V17.9711H214.107V27.5762H229.26V33.0461H214.107V45.4254H229.26V51H207.878ZM248.249 17.9711V51H242.02V17.9711H231.839V12.6844H258.377V17.9711H248.249ZM262.604 51V12.6844H268.833V26.8172H287.677V12.6844H293.906V51H287.677V32.3918H268.833V51H262.604ZM310.251 35.9512H320.929L317.003 27.2098C316.776 26.6514 316.541 26.0146 316.296 25.2992C316.052 24.5664 315.808 23.7551 315.564 22.8652C315.354 23.7027 315.127 24.4879 314.883 25.2207C314.656 25.9361 314.421 26.5991 314.177 27.2098L310.251 35.9512ZM327.472 51L323.127 41.1332H307.948L303.498 51H296.955L315.511 11.1664L334.041 51H327.472Z" fill="#0065B3"/>
<rect x="82" y="56" width="254" height="23" fill="#0065B3"/>
<path d="M86.7276 71.4621L88.3733 70.6999C88.5292 71.2658 88.815 71.6989 89.2308 71.9992C89.6466 72.2936 90.1778 72.4409 90.8246 72.4409C91.4367 72.4409 91.9217 72.2706 92.2797 71.9299C92.6435 71.5892 92.8254 71.133 92.8254 70.5613C92.8254 69.8164 92.2075 69.1523 90.9718 68.5691C90.7986 68.4825 90.6658 68.419 90.5734 68.3786C89.176 67.6972 88.2434 67.0822 87.7756 66.5336C87.3137 65.9793 87.0827 65.3037 87.0827 64.5068C87.0827 63.4732 87.4321 62.6359 88.1308 61.9949C88.8353 61.3539 89.7563 61.0335 90.8939 61.0335C91.8293 61.0335 92.6118 61.2154 93.2412 61.5791C93.8706 61.9372 94.3066 62.454 94.5491 63.1296L92.938 63.9611C92.6839 63.5627 92.4039 63.2711 92.0978 63.0863C91.7976 62.9015 91.4511 62.8091 91.0584 62.8091C90.5041 62.8091 90.0623 62.9535 89.7332 63.2422C89.4098 63.5309 89.2481 63.9178 89.2481 64.4029C89.2481 65.1651 89.9642 65.8753 91.3962 66.5336C91.5059 66.5856 91.5926 66.626 91.6561 66.6549C92.9091 67.2323 93.7695 67.7982 94.2373 68.3526C94.705 68.9012 94.9389 69.5883 94.9389 70.4141C94.9389 71.6151 94.5606 72.5708 93.8042 73.2811C93.0477 73.9856 92.0256 74.3378 90.7379 74.3378C89.6581 74.3378 88.7717 74.0895 88.0788 73.5929C87.3916 73.0963 86.9412 72.386 86.7276 71.4621ZM107.901 64.4029C107.317 63.9062 106.699 63.5338 106.047 63.2855C105.4 63.0372 104.719 62.913 104.003 62.913C102.617 62.913 101.488 63.3577 100.616 64.2469C99.7499 65.1362 99.3168 66.2882 99.3168 67.703C99.3168 69.0715 99.7384 70.2004 100.581 71.0897C101.43 71.9789 102.499 72.4236 103.786 72.4236C104.537 72.4236 105.25 72.2908 105.926 72.0251C106.607 71.7595 107.26 71.3582 107.883 70.8212V73.1512C107.329 73.5496 106.725 73.847 106.073 74.0433C105.42 74.2396 104.713 74.3378 103.951 74.3378C102.981 74.3378 102.083 74.179 101.257 73.8614C100.437 73.5438 99.7153 73.0761 99.0916 72.4582C98.4738 71.8519 97.9974 71.1388 97.6624 70.3188C97.3333 69.493 97.1687 68.6153 97.1687 67.6856C97.1687 66.7559 97.3333 65.884 97.6624 65.0698C97.9974 64.2498 98.4795 63.5309 99.1089 62.913C99.7384 62.2894 100.46 61.8188 101.274 61.5012C102.089 61.1778 102.969 61.0161 103.916 61.0161C104.661 61.0161 105.371 61.1258 106.047 61.3453C106.723 61.5589 107.378 61.8852 108.013 62.324L107.901 64.4029ZM110.988 74V61.3193H113.049V65.9966H119.286V61.3193H121.347V74H119.286V67.8415H113.049V74H110.988ZM135.643 67.6856C135.643 67.0447 135.525 66.4355 135.288 65.858C135.057 65.2806 134.722 64.7666 134.283 64.3162C133.856 63.8716 133.359 63.5309 132.793 63.2942C132.233 63.0516 131.641 62.9304 131.018 62.9304C130.394 62.9304 129.799 63.0487 129.233 63.2855C128.673 63.5222 128.174 63.8658 127.735 64.3162C127.296 64.7609 126.961 65.2719 126.73 65.8494C126.499 66.4268 126.384 67.0389 126.384 67.6856C126.384 68.3266 126.499 68.9329 126.73 69.5046C126.961 70.0763 127.296 70.5873 127.735 71.0377C128.174 71.4881 128.673 71.8317 129.233 72.0684C129.793 72.3052 130.388 72.4236 131.018 72.4236C131.635 72.4236 132.222 72.3052 132.776 72.0684C133.336 71.8317 133.838 71.4881 134.283 71.0377C134.722 70.5873 135.057 70.0763 135.288 69.5046C135.525 68.9271 135.643 68.3208 135.643 67.6856ZM137.791 67.6856C137.791 68.5864 137.621 69.4382 137.28 70.2408C136.945 71.0435 136.454 71.7595 135.807 72.3889C135.155 73.0183 134.419 73.5005 133.599 73.8354C132.779 74.1703 131.918 74.3378 131.018 74.3378C130.105 74.3378 129.233 74.1703 128.402 73.8354C127.576 73.4947 126.846 73.0126 126.21 72.3889C125.564 71.7595 125.073 71.0464 124.738 70.2495C124.403 69.4526 124.235 68.598 124.235 67.6856C124.235 66.779 124.403 65.9244 124.738 65.1218C125.073 64.3191 125.564 63.6002 126.21 62.965C126.857 62.3356 127.59 61.8563 128.41 61.5272C129.23 61.198 130.099 61.0335 131.018 61.0335C131.93 61.0335 132.793 61.198 133.607 61.5272C134.427 61.8563 135.161 62.3356 135.807 62.965C136.454 63.606 136.945 64.3307 137.28 65.1391C137.621 65.9417 137.791 66.7906 137.791 67.6856ZM151.541 67.6856C151.541 67.0447 151.423 66.4355 151.186 65.858C150.955 65.2806 150.62 64.7666 150.181 64.3162C149.754 63.8716 149.257 63.5309 148.691 63.2942C148.131 63.0516 147.539 62.9304 146.916 62.9304C146.292 62.9304 145.697 63.0487 145.131 63.2855C144.571 63.5222 144.072 63.8658 143.633 64.3162C143.194 64.7609 142.859 65.2719 142.628 65.8494C142.397 66.4268 142.282 67.0389 142.282 67.6856C142.282 68.3266 142.397 68.9329 142.628 69.5046C142.859 70.0763 143.194 70.5873 143.633 71.0377C144.072 71.4881 144.571 71.8317 145.131 72.0684C145.691 72.3052 146.286 72.4236 146.916 72.4236C147.533 72.4236 148.12 72.3052 148.674 72.0684C149.234 71.8317 149.736 71.4881 150.181 71.0377C150.62 70.5873 150.955 70.0763 151.186 69.5046C151.423 68.9271 151.541 68.3208 151.541 67.6856ZM153.689 67.6856C153.689 68.5864 153.519 69.4382 153.178 70.2408C152.843 71.0435 152.352 71.7595 151.705 72.3889C151.053 73.0183 150.317 73.5005 149.497 73.8354C148.677 74.1703 147.816 74.3378 146.916 74.3378C146.003 74.3378 145.131 74.1703 144.3 73.8354C143.474 73.4947 142.744 73.0126 142.108 72.3889C141.462 71.7595 140.971 71.0464 140.636 70.2495C140.301 69.4526 140.133 68.598 140.133 67.6856C140.133 66.779 140.301 65.9244 140.636 65.1218C140.971 64.3191 141.462 63.6002 142.108 62.965C142.755 62.3356 143.488 61.8563 144.308 61.5272C145.128 61.198 145.997 61.0335 146.916 61.0335C147.828 61.0335 148.691 61.198 149.505 61.5272C150.325 61.8563 151.059 62.3356 151.705 62.965C152.352 63.606 152.843 64.3307 153.178 65.1391C153.519 65.9417 153.689 66.7906 153.689 67.6856ZM156.586 74V61.3193H158.647V72.1551H163.255V74H156.586ZM182.206 67.6856C182.206 67.0447 182.088 66.4355 181.851 65.858C181.62 65.2806 181.285 64.7666 180.846 64.3162C180.419 63.8716 179.922 63.5309 179.356 63.2942C178.796 63.0516 178.204 62.9304 177.581 62.9304C176.957 62.9304 176.362 63.0487 175.796 63.2855C175.236 63.5222 174.737 63.8658 174.298 64.3162C173.859 64.7609 173.524 65.2719 173.293 65.8494C173.062 66.4268 172.947 67.0389 172.947 67.6856C172.947 68.3266 173.062 68.9329 173.293 69.5046C173.524 70.0763 173.859 70.5873 174.298 71.0377C174.737 71.4881 175.236 71.8317 175.796 72.0684C176.357 72.3052 176.951 72.4236 177.581 72.4236C178.199 72.4236 178.785 72.3052 179.339 72.0684C179.899 71.8317 180.402 71.4881 180.846 71.0377C181.285 70.5873 181.62 70.0763 181.851 69.5046C182.088 68.9271 182.206 68.3208 182.206 67.6856ZM184.354 67.6856C184.354 68.5864 184.184 69.4382 183.843 70.2408C183.508 71.0435 183.017 71.7595 182.371 72.3889C181.718 73.0183 180.982 73.5005 180.162 73.8354C179.342 74.1703 178.482 74.3378 177.581 74.3378C176.668 74.3378 175.796 74.1703 174.965 73.8354C174.139 73.4947 173.409 73.0126 172.773 72.3889C172.127 71.7595 171.636 71.0464 171.301 70.2495C170.966 69.4526 170.799 68.598 170.799 67.6856C170.799 66.779 170.966 65.9244 171.301 65.1218C171.636 64.3191 172.127 63.6002 172.773 62.965C173.42 62.3356 174.154 61.8563 174.974 61.5272C175.794 61.198 176.663 61.0335 177.581 61.0335C178.493 61.0335 179.356 61.198 180.171 61.5272C180.991 61.8563 181.724 62.3356 182.371 62.965C183.017 63.606 183.508 64.3307 183.843 65.1391C184.184 65.9417 184.354 66.7906 184.354 67.6856ZM187.251 74V61.3193H194.328V63.069H189.312V66.2305H194.328V68.0408H189.312V74H187.251ZM202.988 74V61.3193H210.065V63.069H205.05V66.2478H210.065V68.0581H205.05V72.1551H210.065V74H202.988ZM212.962 74V60.8169L221.017 68.5691C221.236 68.7886 221.459 69.0224 221.684 69.2707C221.909 69.519 222.146 69.7991 222.394 70.1109V61.3193H224.3V74.4937L216.08 66.6029C215.86 66.3893 215.647 66.1641 215.439 65.9273C215.237 65.6906 215.043 65.4423 214.859 65.1824V74H212.962ZM234.776 67.5037H239.799C239.799 67.5904 239.802 67.7116 239.808 67.8675C239.825 68.2775 239.834 68.5547 239.834 68.699C239.834 70.4834 239.323 71.8692 238.301 72.8567C237.279 73.8441 235.838 74.3378 233.979 74.3378C232.939 74.3378 232.012 74.1848 231.198 73.8787C230.384 73.5727 229.671 73.1107 229.059 72.4929C228.458 71.8808 227.996 71.1619 227.673 70.3361C227.355 69.5104 227.197 68.6269 227.197 67.6856C227.197 66.7271 227.358 65.8436 227.682 65.0352C228.011 64.2267 228.496 63.5136 229.137 62.8957C229.755 62.2894 230.479 61.8274 231.311 61.5098C232.142 61.1923 233.032 61.0335 233.979 61.0335C234.978 61.0335 235.87 61.2154 236.655 61.5791C237.446 61.9429 238.151 62.5002 238.769 63.2508L237.261 64.3855C236.834 63.8889 236.352 63.5194 235.815 63.2768C235.278 63.0343 234.677 62.913 234.013 62.913C232.639 62.913 231.516 63.3548 230.644 64.2383C229.778 65.116 229.345 66.2593 229.345 67.6683C229.345 69.1004 229.778 70.2639 230.644 71.159C231.516 72.0482 232.645 72.4929 234.031 72.4929C235.209 72.4929 236.135 72.2186 236.811 71.67C237.487 71.1214 237.824 70.3736 237.824 69.4266V69.2447H234.776V67.5037ZM242.575 74V61.3193H244.636V74H242.575ZM248.131 74V60.8169L256.186 68.5691C256.406 68.7886 256.628 69.0224 256.853 69.2707C257.078 69.519 257.315 69.7991 257.563 70.1109V61.3193H259.469V74.4937L251.249 66.6029C251.03 66.3893 250.816 66.1641 250.608 65.9273C250.406 65.6906 250.213 65.4423 250.028 65.1824V74H248.131ZM262.92 74V61.3193H269.997V63.069H264.982V66.2478H269.997V68.0581H264.982V72.1551H269.997V74H262.92ZM272.894 74V61.3193H279.97V63.069H274.955V66.2478H279.97V68.0581H274.955V72.1551H279.97V74H272.894ZM284.928 66.7242H285.301C286.392 66.7242 287.117 66.5971 287.475 66.3431C287.833 66.089 288.012 65.6386 288.012 64.9918C288.012 64.2931 287.819 63.8023 287.432 63.5194C287.051 63.2306 286.34 63.0863 285.301 63.0863H284.928V66.7242ZM284.799 68.3266V74H282.867V61.3193H285.743C286.586 61.3193 287.238 61.3741 287.7 61.4839C288.168 61.5936 288.566 61.7755 288.895 62.0296C289.288 62.3356 289.591 62.7311 289.805 63.2162C290.019 63.7013 290.125 64.2325 290.125 64.81C290.125 65.8263 289.88 66.6231 289.389 67.2006C288.898 67.7722 288.174 68.1158 287.215 68.2313L291.581 74H289.251L285.032 68.3266H284.799ZM293.377 74V61.3193H295.439V74H293.377ZM298.933 74V60.8169L306.989 68.5691C307.208 68.7886 307.43 69.0224 307.656 69.2707C307.881 69.519 308.118 69.7991 308.366 70.1109V61.3193H310.271V74.4937L302.052 66.6029C301.832 66.3893 301.618 66.1641 301.411 65.9273C301.208 65.6906 301.015 65.4423 300.83 65.1824V74H298.933ZM320.747 67.5037H325.771C325.771 67.5904 325.774 67.7116 325.78 67.8675C325.797 68.2775 325.806 68.5547 325.806 68.699C325.806 70.4834 325.295 71.8692 324.273 72.8567C323.251 73.8441 321.81 74.3378 319.95 74.3378C318.911 74.3378 317.984 74.1848 317.17 73.8787C316.356 73.5727 315.643 73.1107 315.031 72.4929C314.43 71.8808 313.968 71.1619 313.645 70.3361C313.327 69.5104 313.168 68.6269 313.168 67.6856C313.168 66.7271 313.33 65.8436 313.653 65.0352C313.983 64.2267 314.468 63.5136 315.109 62.8957C315.726 62.2894 316.451 61.8274 317.283 61.5098C318.114 61.1923 319.003 61.0335 319.95 61.0335C320.949 61.0335 321.842 61.2154 322.627 61.5791C323.418 61.9429 324.122 62.5002 324.74 63.2508L323.233 64.3855C322.806 63.8889 322.324 63.5194 321.787 63.2768C321.25 63.0343 320.649 62.913 319.985 62.913C318.611 62.913 317.488 63.3548 316.616 64.2383C315.749 65.116 315.316 66.2593 315.316 67.6683C315.316 69.1004 315.749 70.2639 316.616 71.159C317.488 72.0482 318.617 72.4929 320.002 72.4929C321.18 72.4929 322.107 72.2186 322.783 71.67C323.458 71.1214 323.796 70.3736 323.796 69.4266V69.2447H320.747V67.5037Z" fill="white"/>
<path d="M88.7435 92.6797H91.0994L90.2333 90.751C90.1832 90.6278 90.1313 90.4873 90.0774 90.3295C90.0235 90.1678 89.9696 89.9888 89.9157 89.7925C89.8695 89.9772 89.8194 90.1505 89.7655 90.3122C89.7155 90.47 89.6635 90.6163 89.6096 90.751L88.7435 92.6797ZM92.5431 96L91.5845 93.823H88.2353L87.2537 96H85.81L89.9041 87.2113L93.9924 96H92.5431ZM95.5682 96V91.623H94.6096V90.5258H95.5682V89.0591C95.5682 88.3315 95.7183 87.7945 96.0186 87.448C96.3227 87.1016 96.7924 86.9283 97.4276 86.9283C97.5623 86.9283 97.7009 86.938 97.8433 86.9572C97.9858 86.9764 98.1301 87.0072 98.2764 87.0496V88.1814C98.1763 88.1236 98.0743 88.0813 97.9704 88.0543C97.8703 88.0236 97.7683 88.0082 97.6643 88.0082C97.364 88.0082 97.1485 88.1005 97.0176 88.2853C96.8867 88.4701 96.8212 88.7819 96.8212 89.2208V90.5258H98.1378V91.623H96.8212V96H95.5682ZM99.9041 96V91.623H98.9455V90.5258H99.9041V89.0591C99.9041 88.3315 100.054 87.7945 100.355 87.448C100.659 87.1016 101.128 86.9283 101.763 86.9283C101.898 86.9283 102.037 86.938 102.179 86.9572C102.322 86.9764 102.466 87.0072 102.612 87.0496V88.1814C102.512 88.1236 102.41 88.0813 102.306 88.0543C102.206 88.0236 102.104 88.0082 102 88.0082C101.7 88.0082 101.484 88.1005 101.353 88.2853C101.223 88.4701 101.157 88.7819 101.157 89.2208V90.5258H102.474V91.623H101.157V96H99.9041ZM104.125 96V87.0496H105.378V96H104.125ZM107.773 88.1583C107.773 87.9466 107.85 87.7637 108.004 87.6097C108.162 87.4557 108.349 87.3787 108.564 87.3787C108.788 87.3787 108.972 87.4538 109.119 87.6039C109.269 87.7502 109.344 87.935 109.344 88.1583C109.344 88.3816 109.269 88.5702 109.119 88.7242C108.969 88.8743 108.784 88.9494 108.564 88.9494C108.349 88.9494 108.162 88.8724 108.004 88.7184C107.85 88.5606 107.773 88.3739 107.773 88.1583ZM107.941 96V90.5258H109.194V96H107.941ZM116.85 96H115.597V95.2897C115.374 95.6054 115.112 95.8402 114.812 95.9942C114.515 96.1482 114.175 96.2252 113.79 96.2252C113.016 96.2252 112.406 95.9615 111.959 95.4341C111.516 94.9029 111.295 94.1772 111.295 93.2571C111.295 92.3833 111.522 91.6788 111.976 91.1437C112.431 90.6047 113.024 90.3353 113.755 90.3353C114.202 90.3353 114.583 90.4296 114.898 90.6182C115.218 90.803 115.451 91.0705 115.597 91.4209V90.5258H116.85V96ZM115.632 93.2456C115.632 92.6797 115.499 92.2389 115.233 91.9232C114.971 91.6076 114.604 91.4497 114.13 91.4497C113.657 91.4497 113.283 91.6133 113.01 91.9406C112.741 92.2639 112.606 92.7143 112.606 93.2918C112.606 93.8731 112.737 94.3216 112.998 94.6372C113.26 94.9529 113.63 95.1107 114.107 95.1107C114.558 95.1107 114.923 94.9394 115.204 94.5968C115.489 94.2542 115.632 93.8038 115.632 93.2456ZM119.586 96V91.623H118.628V90.5258H119.586V88.4528H120.84V90.5258H121.798V91.623H120.84V96H119.586ZM128.865 93.4477H124.488C124.519 93.9597 124.671 94.3601 124.944 94.6488C125.218 94.9337 125.582 95.0761 126.036 95.0761C126.44 95.0761 126.777 94.9914 127.046 94.822C127.316 94.6526 127.551 94.3793 127.751 94.002L128.808 94.591C128.5 95.1415 128.118 95.5515 127.664 95.821C127.21 96.0905 126.677 96.2252 126.065 96.2252C125.187 96.2252 124.488 95.9577 123.969 95.4226C123.449 94.8875 123.189 94.1733 123.189 93.2802C123.189 92.4218 123.457 91.7173 123.992 91.1668C124.531 90.6124 125.222 90.3353 126.065 90.3353C126.946 90.3353 127.633 90.5874 128.126 91.0917C128.619 91.596 128.865 92.3024 128.865 93.2109V93.4477ZM127.566 92.6046C127.516 92.212 127.366 91.9136 127.116 91.7096C126.865 91.5017 126.523 91.3978 126.088 91.3978C125.676 91.3978 125.345 91.4978 125.095 91.698C124.844 91.8982 124.669 92.2004 124.569 92.6046H127.566ZM134.818 93.2456C134.818 92.6797 134.685 92.2389 134.42 91.9232C134.158 91.6076 133.79 91.4497 133.317 91.4497C132.843 91.4497 132.47 91.6133 132.196 91.9406C131.927 92.2639 131.792 92.7143 131.792 93.2918C131.792 93.8731 131.923 94.3216 132.185 94.6372C132.447 94.9529 132.816 95.1107 133.294 95.1107C133.748 95.1107 134.116 94.9413 134.397 94.6026C134.678 94.26 134.818 93.8076 134.818 93.2456ZM134.783 87.0496H136.037V96H134.783V95.2897C134.56 95.6054 134.298 95.8402 133.998 95.9942C133.702 96.1482 133.361 96.2252 132.976 96.2252C132.202 96.2252 131.592 95.9615 131.146 95.4341C130.703 94.9029 130.481 94.1772 130.481 93.2571C130.481 92.3833 130.709 91.6788 131.163 91.1437C131.617 90.6047 132.21 90.3353 132.941 90.3353C133.388 90.3353 133.769 90.4296 134.085 90.6182C134.404 90.803 134.637 91.0705 134.783 91.4209V87.0496ZM143.051 96V91.623H142.093V90.5258H143.051V88.4528H144.304V90.5258H145.263V91.623H144.304V96H143.051ZM151.36 93.2802C151.36 92.7721 151.196 92.3428 150.869 91.9925C150.542 91.6384 150.141 91.4613 149.668 91.4613C149.198 91.4613 148.798 91.6384 148.467 91.9925C148.14 92.3428 147.976 92.7721 147.976 93.2802C147.976 93.7884 148.14 94.2195 148.467 94.5737C148.798 94.924 149.198 95.0992 149.668 95.0992C150.138 95.0992 150.536 94.924 150.863 94.5737C151.194 94.2195 151.36 93.7884 151.36 93.2802ZM146.654 93.2687C146.654 92.8683 146.729 92.4911 146.879 92.1369C147.033 91.7789 147.252 91.4613 147.537 91.1841C147.818 90.9108 148.142 90.701 148.507 90.5547C148.873 90.4084 149.256 90.3353 149.656 90.3353C150.068 90.3353 150.455 90.4084 150.817 90.5547C151.183 90.701 151.51 90.9166 151.799 91.2014C152.087 91.4824 152.307 91.8 152.457 92.1542C152.607 92.5084 152.682 92.8799 152.682 93.2687C152.682 93.6729 152.607 94.0521 152.457 94.4062C152.311 94.7604 152.095 95.0742 151.81 95.3475C151.51 95.6362 151.177 95.8537 150.811 96C150.446 96.1501 150.061 96.2252 149.656 96.2252C149.26 96.2252 148.879 96.1501 148.513 96C148.147 95.8537 147.822 95.6401 147.537 95.359C147.248 95.0742 147.029 94.7546 146.879 94.4005C146.729 94.0463 146.654 93.669 146.654 93.2687ZM160.886 92.6797H163.242L162.376 90.751C162.326 90.6278 162.274 90.4873 162.22 90.3295C162.166 90.1678 162.112 89.9888 162.059 89.7925C162.012 89.9772 161.962 90.1505 161.908 90.3122C161.858 90.47 161.806 90.6163 161.752 90.751L160.886 92.6797ZM164.686 96L163.727 93.823H160.378L159.396 96H157.953L162.047 87.2113L166.135 96H164.686ZM167.665 96V87.5462H169.039V96H167.665ZM178.509 89.6019C178.12 89.2708 177.708 89.0225 177.273 88.857C176.842 88.6915 176.387 88.6087 175.91 88.6087C174.986 88.6087 174.234 88.9051 173.652 89.498C173.075 90.0908 172.786 90.8588 172.786 91.802C172.786 92.7143 173.067 93.4669 173.629 94.0598C174.195 94.6526 174.907 94.949 175.766 94.949C176.266 94.949 176.742 94.8605 177.192 94.6834C177.646 94.5063 178.081 94.2388 178.497 93.8808V95.4341C178.127 95.6997 177.725 95.898 177.29 96.0289C176.855 96.1598 176.384 96.2252 175.875 96.2252C175.229 96.2252 174.63 96.1193 174.08 95.9076C173.533 95.6959 173.052 95.3841 172.636 94.9721C172.224 94.5679 171.906 94.0925 171.683 93.5459C171.464 92.9954 171.354 92.4102 171.354 91.7904C171.354 91.1706 171.464 90.5893 171.683 90.0465C171.906 89.4999 172.228 89.0206 172.647 88.6087C173.067 88.1929 173.548 87.8792 174.091 87.6675C174.634 87.4519 175.221 87.3441 175.852 87.3441C176.349 87.3441 176.822 87.4172 177.273 87.5635C177.723 87.706 178.16 87.9235 178.584 88.216L178.509 89.6019ZM183.653 88.7126V96H182.279V88.7126H180.032V87.5462H185.888V88.7126H183.653ZM187.648 96V87.5462H192.366V88.7126H189.022V90.8319H192.366V92.0387H189.022V94.77H192.366V96H187.648ZM200.408 86.963H201.436V98.7891H200.408V86.963ZM209.854 96V87.5462H211.228V96H209.854ZM213.913 96V87.5462H218.63V88.7126H215.287V90.8319H218.63V92.0387H215.287V94.77H218.63V96H213.913ZM223.648 88.7126V96H222.273V88.7126H220.027V87.5462H225.882V88.7126H223.648ZM226.436 92.7028H229.525V93.8577H226.436V92.7028ZM232.025 87.5462H233.382V92.6797C233.382 93.4419 233.557 94.0155 233.908 94.4005C234.262 94.7816 234.789 94.9721 235.49 94.9721C236.187 94.9721 236.71 94.7816 237.06 94.4005C237.415 94.0155 237.592 93.4419 237.592 92.6797V87.5462H238.966V92.8067C238.966 93.9501 238.677 94.8066 238.1 95.3764C237.522 95.9423 236.652 96.2252 235.49 96.2252C234.327 96.2252 233.459 95.9423 232.885 95.3764C232.312 94.8105 232.025 93.9539 232.025 92.8067V87.5462ZM241.57 96V87.5462H242.944V91.0455L245.981 87.5462H247.662L244.312 91.3054L248.06 96H246.287L242.944 91.6807V96H241.57ZM255.675 92.6797H258.031L257.165 90.751C257.115 90.6278 257.063 90.4873 257.009 90.3295C256.955 90.1678 256.901 89.9888 256.847 89.7925C256.801 89.9772 256.751 90.1505 256.697 90.3122C256.647 90.47 256.595 90.6163 256.541 90.751L255.675 92.6797ZM259.475 96L258.516 93.823H255.167L254.185 96H252.742L256.836 87.2113L260.924 96H259.475ZM266.415 92.0849C266.222 91.8732 265.997 91.7115 265.739 91.5999C265.485 91.4882 265.21 91.4324 264.914 91.4324C264.402 91.4324 263.992 91.5979 263.684 91.929C263.376 92.2601 263.222 92.6989 263.222 93.2456C263.222 93.8153 263.376 94.2638 263.684 94.591C263.995 94.9144 264.425 95.0761 264.971 95.0761C265.275 95.0761 265.547 95.0203 265.786 94.9086C266.024 94.7931 266.234 94.6199 266.415 94.3889V95.8325C266.184 95.9634 265.936 96.0616 265.67 96.127C265.408 96.1925 265.129 96.2252 264.833 96.2252C263.974 96.2252 263.274 95.9519 262.731 95.4052C262.192 94.8586 261.922 94.1502 261.922 93.2802C261.922 92.3987 262.202 91.6884 262.76 91.1495C263.322 90.6067 264.055 90.3353 264.96 90.3353C265.245 90.3353 265.506 90.3641 265.745 90.4219C265.984 90.4758 266.207 90.5605 266.415 90.676V92.0849ZM272.495 92.0849C272.302 91.8732 272.077 91.7115 271.819 91.5999C271.565 91.4882 271.29 91.4324 270.993 91.4324C270.481 91.4324 270.071 91.5979 269.763 91.929C269.455 92.2601 269.301 92.6989 269.301 93.2456C269.301 93.8153 269.455 94.2638 269.763 94.591C270.075 94.9144 270.505 95.0761 271.051 95.0761C271.355 95.0761 271.627 95.0203 271.865 94.9086C272.104 94.7931 272.314 94.6199 272.495 94.3889V95.8325C272.264 95.9634 272.015 96.0616 271.75 96.127C271.488 96.1925 271.209 96.2252 270.913 96.2252C270.054 96.2252 269.353 95.9519 268.811 95.4052C268.272 94.8586 268.002 94.1502 268.002 93.2802C268.002 92.3987 268.281 91.6884 268.84 91.1495C269.402 90.6067 270.135 90.3353 271.04 90.3353C271.324 90.3353 271.586 90.3641 271.825 90.4219C272.064 90.4758 272.287 90.5605 272.495 90.676V92.0849ZM275.739 91.3978C275.874 91.0359 276.051 90.7683 276.271 90.5951C276.494 90.4219 276.769 90.3353 277.096 90.3353C277.273 90.3353 277.447 90.3564 277.616 90.3988C277.789 90.4411 277.959 90.5027 278.124 90.5836L277.674 91.6461C277.566 91.5691 277.449 91.5132 277.322 91.4786C277.198 91.4401 277.06 91.4209 276.906 91.4209C276.49 91.4209 276.192 91.5883 276.011 91.9232C275.83 92.2543 275.739 92.8125 275.739 93.5978V96H274.486V90.5143H275.739V91.3978ZM284.822 93.4477H280.445C280.476 93.9597 280.628 94.3601 280.901 94.6488C281.174 94.9337 281.538 95.0761 281.992 95.0761C282.397 95.0761 282.733 94.9914 283.003 94.822C283.272 94.6526 283.507 94.3793 283.707 94.002L284.764 94.591C284.456 95.1415 284.075 95.5515 283.621 95.821C283.166 96.0905 282.633 96.2252 282.021 96.2252C281.144 96.2252 280.445 95.9577 279.925 95.4226C279.405 94.8875 279.146 94.1733 279.146 93.2802C279.146 92.4218 279.413 91.7173 279.948 91.1668C280.487 90.6124 281.178 90.3353 282.021 90.3353C282.903 90.3353 283.59 90.5874 284.083 91.0917C284.575 91.596 284.822 92.3024 284.822 93.2109V93.4477ZM283.523 92.6046C283.473 92.212 283.322 91.9136 283.072 91.7096C282.822 91.5017 282.479 91.3978 282.044 91.3978C281.632 91.3978 281.301 91.4978 281.051 91.698C280.801 91.8982 280.626 92.2004 280.526 92.6046H283.523ZM290.775 93.2456C290.775 92.6797 290.642 92.2389 290.376 91.9232C290.114 91.6076 289.747 91.4497 289.273 91.4497C288.8 91.4497 288.426 91.6133 288.153 91.9406C287.884 92.2639 287.749 92.7143 287.749 93.2918C287.749 93.8731 287.88 94.3216 288.141 94.6372C288.403 94.9529 288.773 95.1107 289.25 95.1107C289.704 95.1107 290.072 94.9413 290.353 94.6026C290.634 94.26 290.775 93.8076 290.775 93.2456ZM290.74 87.0496H291.993V96H290.74V95.2897C290.517 95.6054 290.255 95.8402 289.955 95.9942C289.658 96.1482 289.318 96.2252 288.933 96.2252C288.159 96.2252 287.549 95.9615 287.102 95.4341C286.659 94.9029 286.438 94.1772 286.438 93.2571C286.438 92.3833 286.665 91.6788 287.119 91.1437C287.574 90.6047 288.166 90.3353 288.898 90.3353C289.344 90.3353 289.726 90.4296 290.041 90.6182C290.361 90.803 290.594 91.0705 290.74 91.4209V87.0496ZM294.325 88.1583C294.325 87.9466 294.402 87.7637 294.556 87.6097C294.714 87.4557 294.901 87.3787 295.116 87.3787C295.34 87.3787 295.524 87.4538 295.671 87.6039C295.821 87.7502 295.896 87.935 295.896 88.1583C295.896 88.3816 295.821 88.5702 295.671 88.7242C295.521 88.8743 295.336 88.9494 295.116 88.9494C294.901 88.9494 294.714 88.8724 294.556 88.7184C294.402 88.5606 294.325 88.3739 294.325 88.1583ZM294.493 96V90.5258H295.746V96H294.493ZM298.546 96V91.623H297.587V90.5258H298.546V88.4528H299.799V90.5258H300.757V91.623H299.799V96H298.546ZM307.703 96H306.45V95.2897C306.227 95.6054 305.965 95.8402 305.665 95.9942C305.368 96.1482 305.028 96.2252 304.643 96.2252C303.869 96.2252 303.259 95.9615 302.812 95.4341C302.37 94.9029 302.148 94.1772 302.148 93.2571C302.148 92.3833 302.375 91.6788 302.83 91.1437C303.284 90.6047 303.877 90.3353 304.608 90.3353C305.055 90.3353 305.436 90.4296 305.751 90.6182C306.071 90.803 306.304 91.0705 306.45 91.4209V90.5258H307.703V96ZM306.485 93.2456C306.485 92.6797 306.352 92.2389 306.086 91.9232C305.825 91.6076 305.457 91.4497 304.983 91.4497C304.51 91.4497 304.137 91.6133 303.863 91.9406C303.594 92.2639 303.459 92.7143 303.459 93.2918C303.459 93.8731 303.59 94.3216 303.852 94.6372C304.113 94.9529 304.483 95.1107 304.96 95.1107C305.411 95.1107 305.777 94.9394 306.058 94.5968C306.342 94.2542 306.485 93.8038 306.485 93.2456ZM310.44 96V91.623H309.481V90.5258H310.44V88.4528H311.693V90.5258H312.651V91.623H311.693V96H310.44ZM314.337 88.1583C314.337 87.9466 314.414 87.7637 314.568 87.6097C314.726 87.4557 314.912 87.3787 315.128 87.3787C315.351 87.3787 315.536 87.4538 315.682 87.6039C315.832 87.7502 315.907 87.935 315.907 88.1583C315.907 88.3816 315.832 88.5702 315.682 88.7242C315.532 88.8743 315.347 88.9494 315.128 88.9494C314.912 88.9494 314.726 88.8724 314.568 88.7184C314.414 88.5606 314.337 88.3739 314.337 88.1583ZM314.504 96V90.5258H315.757V96H314.504ZM322.565 93.2802C322.565 92.7721 322.401 92.3428 322.074 91.9925C321.747 91.6384 321.346 91.4613 320.873 91.4613C320.403 91.4613 320.003 91.6384 319.672 91.9925C319.344 92.3428 319.181 92.7721 319.181 93.2802C319.181 93.7884 319.344 94.2195 319.672 94.5737C320.003 94.924 320.403 95.0992 320.873 95.0992C321.342 95.0992 321.741 94.924 322.068 94.5737C322.399 94.2195 322.565 93.7884 322.565 93.2802ZM317.858 93.2687C317.858 92.8683 317.934 92.4911 318.084 92.1369C318.238 91.7789 318.457 91.4613 318.742 91.1841C319.023 90.9108 319.346 90.701 319.712 90.5547C320.078 90.4084 320.461 90.3353 320.861 90.3353C321.273 90.3353 321.66 90.4084 322.022 90.5547C322.388 90.701 322.715 90.9166 323.003 91.2014C323.292 91.4824 323.512 91.8 323.662 92.1542C323.812 92.5084 323.887 92.8799 323.887 93.2687C323.887 93.6729 323.812 94.0521 323.662 94.4062C323.515 94.7604 323.3 95.0742 323.015 95.3475C322.715 95.6362 322.382 95.8537 322.016 96C321.65 96.1501 321.265 96.2252 320.861 96.2252C320.465 96.2252 320.084 96.1501 319.718 96C319.352 95.8537 319.027 95.6401 318.742 95.359C318.453 95.0742 318.234 94.7546 318.084 94.4005C317.934 94.0463 317.858 93.669 317.858 93.2687ZM325.925 96V90.5258H327.103V91.4209C327.353 91.0436 327.647 90.7683 327.986 90.5951C328.325 90.4219 328.737 90.3353 329.222 90.3353C329.63 90.3353 329.976 90.4007 330.261 90.5316C330.55 90.6586 330.775 90.8492 330.937 91.1033C331.033 91.2534 331.102 91.4286 331.145 91.6287C331.187 91.8289 331.208 92.1792 331.208 92.6797V96H329.944V93.1878C329.944 92.468 329.855 91.9906 329.678 91.7558C329.505 91.5171 329.195 91.3978 328.748 91.3978C328.456 91.3978 328.194 91.4517 327.963 91.5594C327.736 91.6672 327.557 91.8193 327.426 92.0156C327.334 92.1465 327.268 92.3159 327.23 92.5238C327.195 92.7278 327.178 93.055 327.178 93.5054V96H325.925Z" fill="black"/>
<path d="M3.59188 98V92.7164H6.70287V93.6692H4.72151V94.7555H6.70287V95.7155H4.72151V97.04H6.70287V98H3.59188ZM7.72423 98V94.4595H8.73115V95.0153C8.91641 94.7843 9.11491 94.6147 9.32664 94.5065C9.54078 94.3958 9.77777 94.3404 10.0376 94.3404C10.3119 94.3404 10.5417 94.3874 10.7269 94.4812C10.9146 94.5726 11.0626 94.7134 11.1709 94.9034C11.2238 95.0021 11.2611 95.114 11.2827 95.2391C11.3068 95.3618 11.3188 95.5555 11.3188 95.8201V95.932V98H10.2903V96.2496C10.2903 95.8141 10.2397 95.5266 10.1387 95.3871C10.0376 95.2475 9.86439 95.1777 9.61897 95.1777C9.47702 95.1777 9.34589 95.2078 9.22559 95.268C9.10769 95.3257 9.00904 95.4087 8.92965 95.517C8.86709 95.6012 8.82137 95.6974 8.7925 95.8057C8.76604 95.914 8.7528 96.0788 8.7528 96.3001V96.4409V98H7.72423ZM15.8337 97.9423C15.8337 98.3152 15.8109 98.5774 15.7652 98.729C15.7219 98.8806 15.6461 99.0117 15.5378 99.1224C15.3838 99.2884 15.1865 99.4111 14.9459 99.4905C14.7053 99.5699 14.413 99.6096 14.0689 99.6096C13.4939 99.6096 13.0572 99.5182 12.7588 99.3353C12.4605 99.1525 12.2981 98.8746 12.2716 98.5017H13.4012C13.4181 98.6388 13.4806 98.7399 13.5889 98.8048C13.6972 98.8698 13.8572 98.9023 14.0689 98.9023C14.348 98.9023 14.5489 98.8301 14.6716 98.6857C14.7967 98.5414 14.8593 98.3008 14.8593 97.9639V97.4586C14.7221 97.6776 14.5561 97.84 14.3612 97.9459C14.1688 98.0517 13.9402 98.1047 13.6755 98.1047C13.1895 98.1047 12.8009 97.935 12.5098 97.5958C12.2187 97.2541 12.0731 96.7946 12.0731 96.2171C12.0731 95.6301 12.2151 95.1705 12.499 94.8385C12.7829 94.5065 13.1751 94.3404 13.6755 94.3404C13.933 94.3404 14.1615 94.4006 14.3612 94.5209C14.5634 94.6388 14.7318 94.8132 14.8665 95.0442V94.4595H15.8337V97.9423ZM14.9026 96.2244C14.9026 95.9116 14.8232 95.665 14.6644 95.4845C14.5056 95.3041 14.2891 95.2138 14.0148 95.2138C13.7333 95.2138 13.5131 95.3041 13.3543 95.4845C13.1955 95.6625 13.1161 95.9092 13.1161 96.2244C13.1161 96.5395 13.1943 96.785 13.3507 96.9606C13.5071 97.1362 13.7261 97.2241 14.0076 97.2241C14.2891 97.2241 14.508 97.1362 14.6644 96.9606C14.8232 96.785 14.9026 96.5395 14.9026 96.2244ZM16.7973 93.0051C16.7973 92.8415 16.8563 92.7007 16.9742 92.5828C17.0921 92.4649 17.2328 92.406 17.3964 92.406C17.5625 92.406 17.7044 92.4649 17.8223 92.5828C17.9426 92.6983 18.0028 92.8391 18.0028 93.0051C18.0028 93.1711 17.9426 93.3131 17.8223 93.431C17.7044 93.5489 17.5625 93.6078 17.3964 93.6078C17.2328 93.6078 17.0921 93.5477 16.9742 93.4274C16.8563 93.3071 16.7973 93.1663 16.7973 93.0051ZM16.8876 98V94.4595H17.9125V98H16.8876ZM18.9555 98V94.4595H19.9625V95.0153C20.1477 94.7843 20.3462 94.6147 20.558 94.5065C20.7721 94.3958 21.0091 94.3404 21.2689 94.3404C21.5432 94.3404 21.773 94.3874 21.9583 94.4812C22.1459 94.5726 22.2939 94.7134 22.4022 94.9034C22.4551 95.0021 22.4924 95.114 22.5141 95.2391C22.5381 95.3618 22.5501 95.5555 22.5501 95.8201V95.932V98H21.5216V96.2496C21.5216 95.8141 21.471 95.5266 21.37 95.3871C21.2689 95.2475 21.0957 95.1777 20.8503 95.1777C20.7083 95.1777 20.5772 95.2078 20.4569 95.268C20.339 95.3257 20.2404 95.4087 20.161 95.517C20.0984 95.6012 20.0527 95.6974 20.0238 95.8057C19.9974 95.914 19.9841 96.0788 19.9841 96.3001V96.4409V98H18.9555ZM25.9643 95.8635C25.9354 95.6397 25.8536 95.4713 25.7189 95.3582C25.5865 95.2427 25.4049 95.185 25.1739 95.185C24.9429 95.185 24.7577 95.2427 24.6181 95.3582C24.481 95.4713 24.3932 95.6397 24.3547 95.8635H25.9643ZM26.982 96.4842H24.3222C24.3631 96.7392 24.4557 96.9305 24.6001 97.058C24.7444 97.1832 24.9405 97.2457 25.1884 97.2457C25.376 97.2457 25.5372 97.2096 25.672 97.1374C25.8091 97.0653 25.9234 96.9558 26.0148 96.809L26.8449 97.2241C26.6524 97.5344 26.419 97.7654 26.1447 97.917C25.8705 98.0662 25.5444 98.1408 25.1667 98.1408C24.5941 98.1408 24.1405 97.9699 23.8061 97.6283C23.4717 97.2866 23.3044 96.8271 23.3044 96.2496C23.3044 95.6938 23.4789 95.2367 23.8277 94.8782C24.179 94.5197 24.6277 94.3404 25.1739 94.3404C25.7369 94.3404 26.182 94.5089 26.5093 94.8457C26.8365 95.1801 27.0001 95.6373 27.0001 96.2171C27.0001 96.2484 26.9989 96.2833 26.9965 96.3218C26.9941 96.3579 26.9893 96.412 26.982 96.4842ZM30.2013 95.8635C30.1724 95.6397 30.0906 95.4713 29.9559 95.3582C29.8236 95.2427 29.6419 95.185 29.4109 95.185C29.1799 95.185 28.9947 95.2427 28.8551 95.3582C28.718 95.4713 28.6302 95.6397 28.5917 95.8635H30.2013ZM31.2191 96.4842H28.5592C28.6001 96.7392 28.6927 96.9305 28.8371 97.058C28.9814 97.1832 29.1775 97.2457 29.4254 97.2457C29.613 97.2457 29.7742 97.2096 29.909 97.1374C30.0461 97.0653 30.1604 96.9558 30.2518 96.809L31.0819 97.2241C30.8894 97.5344 30.656 97.7654 30.3818 97.917C30.1075 98.0662 29.7815 98.1408 29.4037 98.1408C28.8311 98.1408 28.3775 97.9699 28.0431 97.6283C27.7087 97.2866 27.5414 96.8271 27.5414 96.2496C27.5414 95.6938 27.7159 95.2367 28.0648 94.8782C28.416 94.5197 28.8648 94.3404 29.4109 94.3404C29.9739 94.3404 30.419 94.5089 30.7463 94.8457C31.0735 95.1801 31.2371 95.6373 31.2371 96.2171C31.2371 96.2484 31.2359 96.2833 31.2335 96.3218C31.2311 96.3579 31.2263 96.412 31.2191 96.4842ZM32.9911 95.369C33.0945 95.025 33.2425 94.7675 33.435 94.5967C33.6299 94.4259 33.8705 94.3404 34.1568 94.3404C34.2218 94.3404 34.3288 94.3525 34.478 94.3765C34.5069 94.3813 34.5285 94.3849 34.543 94.3874L34.3878 95.4917C34.3108 95.4604 34.2326 95.4376 34.1532 95.4231C34.0762 95.4063 33.9944 95.3979 33.9078 95.3979C33.595 95.3979 33.37 95.4785 33.2329 95.6397C33.0957 95.7985 33.0272 96.0656 33.0272 96.4409V98H31.9986V94.4595H33.0127L32.9911 95.369ZM37.4085 98V95.2644H36.9141V94.4595H37.4085V93.283H38.4371V94.4595H38.9316V95.2644H38.4371V98H37.4085ZM42.2483 96.2352C42.2483 95.9465 42.1641 95.7167 41.9956 95.5459C41.8272 95.3726 41.601 95.286 41.3171 95.286C41.0332 95.286 40.8083 95.3714 40.6422 95.5422C40.4762 95.7131 40.3932 95.9441 40.3932 96.2352C40.3932 96.5239 40.4762 96.7549 40.6422 96.9281C40.8083 97.1014 41.0332 97.188 41.3171 97.188C41.5986 97.188 41.8236 97.1014 41.992 96.9281C42.1628 96.7549 42.2483 96.5239 42.2483 96.2352ZM43.2949 96.2424C43.2949 96.7862 43.1084 97.2385 42.7355 97.5994C42.365 97.9603 41.8946 98.1408 41.3244 98.1408C40.7493 98.1408 40.2753 97.9603 39.9024 97.5994C39.5295 97.2385 39.343 96.7862 39.343 96.2424C39.343 95.701 39.5307 95.2487 39.906 94.8854C40.2813 94.5221 40.7541 94.3404 41.3244 94.3404C41.897 94.3404 42.3686 94.5197 42.7391 94.8782C43.1096 95.2367 43.2949 95.6914 43.2949 96.2424ZM46.4384 98V92.7164H49.5493V93.6692H47.568V94.7555H49.5493V95.7155H47.568V97.04H49.5493V98H46.4384ZM51.2203 98H50.0041L51.26 96.2027L50.069 94.4595H51.3539L51.7039 95.1164C51.7472 95.2006 51.7857 95.2872 51.8194 95.3762C51.8555 95.4653 51.888 95.5591 51.9169 95.6577C51.9433 95.5663 51.9758 95.4761 52.0143 95.3871C52.0528 95.2956 52.0997 95.203 52.1551 95.1092L52.5304 94.4595H53.7503L52.5376 96.181L53.8152 98H52.5376L52.1226 97.2746C52.0745 97.1832 52.0312 97.0929 51.9927 97.0039C51.9566 96.9125 51.9265 96.821 51.9024 96.7296C51.8784 96.8235 51.8471 96.9149 51.8086 97.0039C51.7701 97.0905 51.7196 97.1832 51.657 97.2818L51.2203 98ZM56.7313 97.8953C56.5918 97.9795 56.445 98.0409 56.291 98.0794C56.137 98.1203 55.9686 98.1408 55.7858 98.1408C55.2276 98.1408 54.7728 97.9639 54.4215 97.6102C54.0703 97.2541 53.8946 96.7922 53.8946 96.2244C53.8946 95.6686 54.0715 95.2162 54.4252 94.8674C54.7788 94.5161 55.2372 94.3404 55.8002 94.3404C55.9879 94.3404 56.1563 94.3585 56.3055 94.3946C56.4546 94.4307 56.5966 94.4872 56.7313 94.5642L56.7241 95.5964C56.6158 95.4857 56.4907 95.4003 56.3488 95.3401C56.2068 95.28 56.0564 95.2499 55.8976 95.2499C55.6089 95.2499 55.3779 95.3389 55.2047 95.517C55.0315 95.6926 54.9449 95.926 54.9449 96.2171C54.9449 96.5155 55.0327 96.7537 55.2083 96.9317C55.3864 97.1074 55.6258 97.1952 55.9265 97.1952C56.0925 97.1952 56.2393 97.1651 56.3668 97.105C56.4967 97.0448 56.6158 96.951 56.7241 96.8235L56.7313 97.8953ZM59.947 95.8635C59.9181 95.6397 59.8363 95.4713 59.7016 95.3582C59.5692 95.2427 59.3876 95.185 59.1566 95.185C58.9256 95.185 58.7404 95.2427 58.6008 95.3582C58.4637 95.4713 58.3758 95.6397 58.3373 95.8635H59.947ZM60.9647 96.4842H58.3049C58.3458 96.7392 58.4384 96.9305 58.5828 97.058C58.7271 97.1832 58.9232 97.2457 59.171 97.2457C59.3587 97.2457 59.5199 97.2096 59.6546 97.1374C59.7918 97.0653 59.9061 96.9558 59.9975 96.809L60.8276 97.2241C60.6351 97.5344 60.4017 97.7654 60.1274 97.917C59.8531 98.0662 59.5271 98.1408 59.1494 98.1408C58.5767 98.1408 58.1232 97.9699 57.7888 97.6283C57.4543 97.2866 57.2871 96.8271 57.2871 96.2496C57.2871 95.6938 57.4616 95.2367 57.8104 94.8782C58.1617 94.5197 58.6104 94.3404 59.1566 94.3404C59.7196 94.3404 60.1647 94.5089 60.4919 94.8457C60.8192 95.1801 60.9828 95.6373 60.9828 96.2171C60.9828 96.2484 60.9816 96.2833 60.9792 96.3218C60.9768 96.3579 60.9719 96.412 60.9647 96.4842ZM61.784 98V92.406H62.8089V98H61.784Z" fill="#0065B3"/>
</svg>
